<svg id="Capa_1" enable-background="new 0 0 512 512" height="512" viewBox="0 0 512 512" width="512" xmlns="http://www.w3.org/2000/svg"><g><path d="m504.5 367.325c4.143 0 7.5-3.358 7.5-7.5v-248.35c0-12.407-10.094-22.5-22.5-22.5h-8.648v-3.308c0-9.649-7.851-17.5-17.5-17.5h-414.704c-9.649 0-17.5 7.851-17.5 17.5v3.308h-8.648c-12.406 0-22.5 10.093-22.5 22.5v309.858c0 12.407 10.094 22.5 22.5 22.5h83.049c4.143 0 7.5-3.358 7.5-7.5s-3.357-7.5-7.5-7.5h-83.049c-4.136 0-7.5-3.365-7.5-7.5v-309.858c0-4.136 3.364-7.5 7.5-7.5h8.648v5.183c0 9.649 7.851 17.5 17.5 17.5h145.33c4.143 0 7.5-3.358 7.5-7.5s-3.357-7.5-7.5-7.5h-145.33c-1.379 0-2.5-1.122-2.5-2.5v-23.49c0-1.378 1.121-2.5 2.5-2.5h414.703c1.379 0 2.5 1.122 2.5 2.5v23.49c0 1.378-1.121 2.5-2.5 2.5h-233.082c-4.143 0-7.5 3.358-7.5 7.5s3.357 7.5 7.5 7.5h19.91v302.175h-108.34c-4.143 0-7.5 3.358-7.5 7.5s3.357 7.5 7.5 7.5h347.661c12.406 0 22.5-10.093 22.5-22.5v-25.218c0-4.142-3.357-7.5-7.5-7.5s-7.5 3.358-7.5 7.5v25.218c0 4.135-3.364 7.5-7.5 7.5h-97.431c-14.45-20.291-10.741-45.661 11.785-81.632 2.758-4.402 5.81-8.673 9.135-12.811 6.107.883 11.997 1.346 17.644 1.346 28.339 0 50.767-11.088 66.366-32.685v56.774c.001 4.143 3.358 7.5 7.501 7.5zm-23.648-258.168v-5.183h8.648c4.136 0 7.5 3.364 7.5 7.5v65.287c-16.346 7.484-24.244 19.238-39.922 42.589-11.501 17.13-20.361 24.825-25.769 28.264-5.287 3.361-8.998 3.8-10.711 3.091-.982-.408-.948-1.057-.951-1.057-.001 0-.001 0-.001 0 12.516-33.578 14.131-57.451 5.086-75.131-8.227-16.082-23.792-24.077-38.846-31.808-9.48-4.869-18.586-9.557-26.04-16.051h103.505c9.65-.001 17.501-7.851 17.501-17.501zm-215.673 180.068c9.761-4.089 28.334-8.277 49.781 4.957 14.442 8.911 28.484 16.466 41.901 22.587-.514.238-1.03.468-1.551.684-14.65 6.089-32.257 7.681-49.283 9.221-13.738 1.242-27.838 2.529-40.849 6.158v-43.607zm113.264-46.634c-16.802-7.453-27.753-24.03-27.753-42.81 0-18.974 11.61-36.187 29.059-43.362 13.267 6.817 25.712 13.359 31.631 24.929 4.439 8.678 5.215 20.336 2.342 35.25-15.524 2.403-28.576 12.372-35.279 25.993zm-38.799-115.934c6.661 9.263 15.337 15.842 24.293 21.202-17.296 11.251-28.248 30.754-28.248 51.921 0 25.419 15.203 47.78 38.349 57.235-.156 1.146-.283 2.301-.355 3.471-.371 6.011.364 11.924 2.188 17.578 3.647 11.288.755 21.038-5.299 28.342-15.05-6.335-31.089-14.719-47.736-24.99-23.361-14.415-44.27-12.365-57.658-8.144v-146.615zm51.499 212.582c-15.08 24.079-32.022 58.266-16.527 89.594h-109.437v-80.33c12.54-4.2 26.993-5.515 42.199-6.89 18.15-1.641 36.919-3.338 53.688-10.308 24.796-10.305 36.754-34.095 29.08-57.848-1.245-3.86-1.747-7.913-1.492-12.047.795-12.911 9.214-23.816 20.804-28.248-1.132 3.604-2.411 7.344-3.866 11.248-2.759 7.401.671 15.809 7.979 19.557 1.971 1.011 4.915 2.03 8.771 2.03 6.802 0 16.442-3.179 28.576-15.153 1.679 3.965 2.562 8.236 2.562 12.635 0 10.734-5.297 20.759-14.167 26.815-20.295 13.85-36.501 30.318-48.17 48.945zm34.454-18.623c6.639-6.395 14.041-12.385 22.172-17.934 12.968-8.854 20.71-23.51 20.71-39.204 0-8.803-2.391-17.275-6.934-24.705 2.576-3.299 5.238-6.968 7.987-11.063 12.445-18.535 18.735-27.9 27.469-33.827v76.782c-12.874 35.42-36.297 51.857-71.404 49.951z"/><path d="m63.696 289.906c-8.763 3.91-22.004 9.817-22.004 27.198 0 4.142 3.357 7.5 7.5 7.5h32.387c4.143 0 7.5-3.358 7.5-7.5s-3.357-7.5-7.5-7.5h-22.183c2.071-2.098 5.431-3.777 10.412-6 8.133-3.628 19.271-8.598 19.271-22.388 0-12.917-10.509-23.426-23.426-23.426h-.535c-12.917 0-23.426 10.509-23.426 23.426 0 4.142 3.357 7.5 7.5 7.5s7.5-3.358 7.5-7.5c0-4.646 3.779-8.426 8.426-8.426h.535c4.646 0 8.426 3.78 8.426 8.426 0 3.376-1.747 4.837-10.383 8.69z"/><path d="m94.112 358.029c0-12.917-10.509-23.426-23.426-23.426h-.534c-12.918 0-23.427 10.509-23.427 23.426 0 4.142 3.357 7.5 7.5 7.5s7.5-3.358 7.5-7.5c0-4.646 3.78-8.426 8.427-8.426h.534c4.646 0 8.426 3.78 8.426 8.426 0 3.375-1.747 4.836-10.383 8.69-8.763 3.91-22.004 9.817-22.004 27.198 0 4.142 3.357 7.5 7.5 7.5h32.387c4.143 0 7.5-3.358 7.5-7.5s-3.357-7.5-7.5-7.5h-22.183c2.071-2.098 5.431-3.777 10.412-6 8.133-3.629 19.271-8.598 19.271-22.388z"/><path d="m145.638 300.911v-19.428c0-13.064-10.629-23.693-23.693-23.693s-23.693 10.629-23.693 23.693v19.428c0 13.064 10.629 23.693 23.693 23.693s23.693-10.628 23.693-23.693zm-32.387 0v-19.428c0-4.793 3.899-8.693 8.693-8.693s8.693 3.9 8.693 8.693v19.428c0 4.793-3.899 8.693-8.693 8.693s-8.693-3.899-8.693-8.693z"/><path d="m140.372 393.917c0-4.142-3.357-7.5-7.5-7.5h-2.514v-44.314c0-2.736-1.49-5.255-3.888-6.573-2.397-1.317-5.323-1.225-7.634.242l-9.782 6.213c-3.496 2.221-4.53 6.856-2.31 10.352 1.868 2.941 5.442 4.139 8.613 3.125v30.955h-2.514c-4.143 0-7.5 3.358-7.5 7.5s3.357 7.5 7.5 7.5h20.027c4.145 0 7.502-3.358 7.502-7.5z"/><path d="m41.692 239.257c0 4.142 3.357 7.5 7.5 7.5h20.419c4.143 0 7.5-3.358 7.5-7.5s-3.357-7.5-7.5-7.5h-20.419c-4.142 0-7.5 3.358-7.5 7.5z"/><path d="m38.654 175.982c1.464 1.465 3.384 2.197 5.303 2.197s3.839-.732 5.304-2.197l10.471-10.471c2.929-2.929 2.929-7.678 0-10.606l-10.471-10.471c-2.93-2.929-7.679-2.929-10.606 0-2.93 2.929-2.93 7.677-.001 10.606l5.168 5.168-5.168 5.168c-2.929 2.929-2.929 7.677 0 10.606z"/><path d="m212.861 182.04h8.497c4.143 0 7.5-3.358 7.5-7.5s-3.357-7.5-7.5-7.5h-8.497c-4.143 0-7.5 3.358-7.5 7.5s3.358 7.5 7.5 7.5z"/><path d="m212.861 215.027h8.497c4.143 0 7.5-3.358 7.5-7.5s-3.357-7.5-7.5-7.5h-8.497c-4.143 0-7.5 3.358-7.5 7.5s3.358 7.5 7.5 7.5z"/><path d="m175.34 248.013h8.497c4.143 0 7.5-3.358 7.5-7.5s-3.357-7.5-7.5-7.5h-8.497c-4.143 0-7.5 3.358-7.5 7.5s3.357 7.5 7.5 7.5z"/><path d="m212.861 248.013h8.497c4.143 0 7.5-3.358 7.5-7.5s-3.357-7.5-7.5-7.5h-8.497c-4.143 0-7.5 3.358-7.5 7.5s3.358 7.5 7.5 7.5z"/><path d="m175.34 280.999h8.497c4.143 0 7.5-3.358 7.5-7.5s-3.357-7.5-7.5-7.5h-8.497c-4.143 0-7.5 3.358-7.5 7.5s3.357 7.5 7.5 7.5z"/><path d="m212.861 280.999h8.497c4.143 0 7.5-3.358 7.5-7.5s-3.357-7.5-7.5-7.5h-8.497c-4.143 0-7.5 3.358-7.5 7.5s3.358 7.5 7.5 7.5z"/><path d="m175.34 313.986h8.497c4.143 0 7.5-3.358 7.5-7.5s-3.357-7.5-7.5-7.5h-8.497c-4.143 0-7.5 3.358-7.5 7.5s3.357 7.5 7.5 7.5z"/><path d="m212.861 313.986h8.497c4.143 0 7.5-3.358 7.5-7.5s-3.357-7.5-7.5-7.5h-8.497c-4.143 0-7.5 3.358-7.5 7.5s3.358 7.5 7.5 7.5z"/><path d="m175.34 346.971h8.497c4.143 0 7.5-3.358 7.5-7.5s-3.357-7.5-7.5-7.5h-8.497c-4.143 0-7.5 3.358-7.5 7.5s3.357 7.5 7.5 7.5z"/><path d="m212.861 346.971h8.497c4.143 0 7.5-3.358 7.5-7.5s-3.357-7.5-7.5-7.5h-8.497c-4.143 0-7.5 3.358-7.5 7.5s3.358 7.5 7.5 7.5z"/><path d="m175.34 379.958h8.497c4.143 0 7.5-3.358 7.5-7.5s-3.357-7.5-7.5-7.5h-8.497c-4.143 0-7.5 3.358-7.5 7.5s3.357 7.5 7.5 7.5z"/><path d="m427.137 354.039h-.078c-4.108.011-7.481 3.311-7.508 7.453-.025 4.142 3.351 7.521 7.492 7.547h.048c4.12 0 7.473-3.327 7.499-7.453.025-4.142-3.312-7.521-7.453-7.547z"/><path d="m461.012 354.039h-.078c-4.167.011-7.481 3.311-7.508 7.453-.025 4.142 3.351 7.521 7.492 7.547h.048c4.12 0 7.473-3.327 7.499-7.453.025-4.142-3.312-7.521-7.453-7.547z"/><path d="m410.084 377.727c-.017 0-.032 0-.049 0-4.12 0-7.435 3.327-7.46 7.453-.026 4.142 3.349 7.521 7.49 7.548h.049c4.12 0 7.473-3.327 7.499-7.453.026-4.142-3.311-7.521-7.452-7.547z"/><path d="m443.959 377.727c-.017 0-.032 0-.049 0-4.12 0-7.435 3.327-7.46 7.453-.026 4.142 3.349 7.521 7.49 7.548h.049c4.12 0 7.473-3.327 7.499-7.453.026-4.142-3.311-7.521-7.452-7.547z"/><path d="m477.832 377.727c-.017 0-.031 0-.048 0-4.119 0-7.434 3.328-7.46 7.454-.025 4.142 3.351 7.521 7.492 7.547h.048c4.12 0 7.473-3.327 7.499-7.453.025-4.142-3.312-7.521-7.453-7.547z"/><path d="m427.012 401.415h-.077c-4.143 0-7.462 3.358-7.462 7.5s3.396 7.5 7.539 7.5 7.5-3.358 7.5-7.5-3.358-7.5-7.5-7.5z"/><path d="m460.887 401.415h-.077c-4.143 0-7.462 3.358-7.462 7.5s3.396 7.5 7.539 7.5 7.5-3.358 7.5-7.5-3.358-7.5-7.5-7.5z"/><path d="m308.191 192.537h.077.049c4.119 0 7.435-3.327 7.46-7.453.026-4.142-3.349-7.521-7.49-7.548-.017 0-.032 0-.049 0-4.12 0-7.473 3.327-7.499 7.453-.026 4.143 3.311 7.521 7.452 7.548z"/><path d="m325.147 168.801h.077c4.143 0 7.461-3.358 7.461-7.5s-3.396-7.5-7.538-7.5-7.5 3.358-7.5 7.5 3.358 7.5 7.5 7.5z"/><path d="m291.272 168.898h.078c4.143 0 7.461-3.358 7.461-7.5s-3.396-7.5-7.539-7.5-7.5 3.358-7.5 7.5 3.358 7.5 7.5 7.5z"/></g></svg>